<svg width="169" height="169" viewBox="0 0 169 169" fill="none" xmlns="http://www.w3.org/2000/svg">
    <path d="M75.9156 9.14175C76.4059 11.3074 76.0161 13.579 74.8319 15.4573C73.6478 17.3356 71.7662 18.6668 69.6009 19.1582C55.6743 22.3336 43.1271 29.8767 33.7903 40.6867C24.4535 51.4967 18.8158 65.0077 17.7 79.248C16.5842 93.4883 20.0487 107.713 27.5879 119.845C35.1271 131.977 46.3463 141.382 59.6083 146.688C72.8703 151.994 87.4809 152.922 101.308 149.338C115.135 145.754 127.454 137.844 136.469 126.764C145.483 115.683 150.72 102.012 151.416 87.7452C152.112 73.4782 148.229 59.3623 140.336 47.4574C139.727 46.5412 139.305 45.5141 139.093 44.4348C138.881 43.3554 138.884 42.2449 139.102 41.1666C139.541 38.9889 140.827 37.0749 142.677 35.8454C144.527 34.616 146.79 34.1719 148.968 34.6109C150.046 34.8283 151.071 35.2559 151.984 35.8694C152.897 36.4828 153.68 37.2701 154.289 38.1862C163.415 51.9063 168.273 68.022 168.25 84.5C168.25 130.755 130.755 168.25 84.5 168.25C38.2449 168.25 0.75 130.755 0.75 84.5C0.75 44.635 28.5969 11.2857 65.8991 2.827C68.0647 2.33673 70.3364 2.72652 72.2147 3.91067C74.093 5.09482 75.4242 6.9764 75.9156 9.14175ZM92.875 9.24225C92.874 7.98591 93.1528 6.74512 93.6913 5.61003C94.2298 4.47493 95.0143 3.47403 95.9879 2.68004C96.9616 1.88606 98.0998 1.31892 99.3201 1.01984C100.54 0.720758 101.812 0.69724 103.042 0.950996L104.005 1.21062L129.021 9.55212C131.054 10.2238 132.752 11.648 133.767 13.5325C134.782 15.4169 135.037 17.6184 134.48 19.685C133.922 21.7516 132.595 23.5263 130.77 24.6448C128.945 25.7632 126.761 26.1405 124.666 25.6991L123.729 25.4479L109.625 20.7411V84.5C109.623 89.7616 107.968 94.8897 104.895 99.1609C101.823 103.432 97.4866 106.631 92.4987 108.306C87.5109 109.981 82.123 110.048 77.095 108.497C72.0671 106.946 67.6529 103.856 64.4751 99.6627C61.2972 95.4691 59.5162 90.3837 59.383 85.1237C59.2499 79.8638 60.7715 74.6948 63.7332 70.3458C66.6948 65.9969 70.9471 62.6875 75.8901 60.8844C80.8332 59.0813 86.2175 58.8756 91.2838 60.2962L92.875 60.7987V9.25062V9.24225Z" fill="url(#paint0_linear_1231_113)"/>
    <defs>
        <linearGradient id="paint0_linear_1231_113" x1="168" y1="20.5" x2="-143" y2="317.5" gradientUnits="userSpaceOnUse">
            <stop stop-color="#FFB6C1"/>
            <stop offset="1" stop-color="#9370DB"/>
        </linearGradient>
    </defs>
</svg>
